# xmcd
# 
# Track frame offsets:
#     150
#     18041
#     37753
#     53349
#     72468
#     91539
#     113755
#     133691
#     159628
#     192769
#     213455
#     237698
#     270359
#     301670
#     326656
# 
# Disc length: 4673
# 
# Revision: 0
# Processed by: cddbd v1.5.2PL0 Copyright (c) Steve Scherf et al.
# Submitted via: fre:ac v1.0.31
# 
DISCID=ba123f0f
DTITLE=HIROYUKI SAWANO - KABANERI OF THE IRON FORTRESS COMPLETE SOUNDTRACK DISC1
DYEAR=2016
DGENRE=Anime
TTITLE0=S_TEAM
TTITLE1=ninelie(Lv)
TTITLE2=Next of Kin
TTITLE3=Warcry
TTITLE4=Through My Blood
TTITLE5=Grenzlinie
TTITLE6=icon
TTITLE7=KABANERI-SEAGATE弐
TTITLE8=KABANERI-SEAGATE二
TTITLE9=88城
TTITLE10=KGK
TTITLE11=ComeBack音
TTITLE12=克JOU気MACHINE甲
TTITLE13=1coma
TTITLE14=KABANERI OF THE IRON FORTRESS
EXTD=
EXTT0=
EXTT1=
EXTT2=
EXTT3=
EXTT4=
EXTT5=
EXTT6=
EXTT7=
EXTT8=
EXTT9=
EXTT10=
EXTT11=
EXTT12=
EXTT13=
EXTT14=
PLAYORDER=
